<?xml version="1.0" encoding="utf-8"?>
<!-- Generator: Adobe Illustrator 25.2.1, SVG Export Plug-In . SVG Version: 6.00 Build 0)  -->
<svg version="1.1" id="Layer_1" xmlns="http://www.w3.org/2000/svg" xmlns:xlink="http://www.w3.org/1999/xlink" x="0px" y="0px"
	 viewBox="0 0 3562 738" style="enable-background:new 0 0 3562 738;" xml:space="preserve">
<style type="text/css">
	.st0{fill:#1C1C1B;}
	.st1{fill:#1364F0;}
	.st2{fill:#DCDC00;}
	.st3{fill:#F50000;}
	.st4{fill:#6D1943;}
	.st5{fill:#00A946;}
	.st6{fill:#EF3B68;}
	.st7{fill:#3499CD;}
	.st8{fill:#6FC498;}
	.st9{fill:#996699;}
	.st10{fill:#FFCE0C;}
	.st11{fill:#E62C5F;}
	.st12{fill:#EC1C24;}
	.st13{fill:#E94753;}
	.st14{fill:#EE6771;}
	.st15{fill:#ED8D97;}
	.st16{fill:#E4B4BC;}
	.st17{fill:#FFFFFF;}
	.st18{clip-path:url(#SVGID_2_);fill:#6D1843;}
	.st19{clip-path:url(#SVGID_2_);fill:none;stroke:#6D1843;stroke-width:1.909;stroke-miterlimit:10;}
	.st20{clip-path:url(#SVGID_2_);fill:#8B2863;}
	.st21{clip-path:url(#SVGID_2_);fill:none;stroke:#8B2863;stroke-width:1.909;stroke-miterlimit:10;}
	.st22{clip-path:url(#SVGID_2_);fill:#BE5E91;}
	.st23{clip-path:url(#SVGID_2_);fill:none;stroke:#BE5E91;stroke-width:1.909;stroke-miterlimit:10;}
	.st24{clip-path:url(#SVGID_2_);fill:#D180B0;}
	.st25{clip-path:url(#SVGID_2_);fill:none;stroke:#D180B0;stroke-width:1.909;stroke-miterlimit:10;}
	.st26{clip-path:url(#SVGID_2_);fill:#FFFFFF;}
	.st27{clip-path:url(#SVGID_2_);fill:none;stroke:#FFFFFF;stroke-width:1.909;stroke-miterlimit:10;}
	.st28{clip-path:url(#SVGID_4_);fill:#478CCA;}
	.st29{clip-path:url(#SVGID_4_);fill:#50ABE0;}
	.st30{clip-path:url(#SVGID_4_);fill:#6BC9F1;}
	.st31{clip-path:url(#SVGID_4_);fill:#FFFFFF;}
	.st32{fill:none;stroke:#DEDEDE;stroke-width:30;}
	.st33{fill:#CCCCCC;}
	.st34{fill:#78BF92;}
	.st35{fill:#3997CD;}
	.st36{fill:#A06396;}
	.st37{fill:#F3962B;}
	.st38{fill:#FFCE00;}
	.st39{fill:#A2FFC2;}
	.st40{fill:#46C3FF;}
	.st41{fill:#FFAFFF;}
	.st42{fill:#FF3E82;}
	.st43{fill:#FFAA37;}
	.st44{fill:#FFD400;}
	.st45{fill:none;}
	.st46{fill:#2F89F4;stroke:#2F89F4;stroke-width:0.6673;stroke-miterlimit:10;}
	.st47{fill:#8218E8;stroke:#8218E8;stroke-width:0.6673;stroke-miterlimit:10;}
	.st48{fill:#EF8F26;stroke:#EF8F26;stroke-width:0.6673;stroke-miterlimit:10;}
	.st49{fill:#EF3030;stroke:#EF3030;stroke-width:0.6673;stroke-miterlimit:10;}
	.st50{fill:#19D86B;stroke:#19D86B;stroke-width:0.6673;stroke-miterlimit:10;}
	.st51{fill:#85DD28;stroke:#85DD28;stroke-width:0.6673;stroke-miterlimit:10;}
	.st52{fill:#F9E419;stroke:#F9E419;stroke-width:0.6673;stroke-miterlimit:10;}
	.st53{fill:#F28314;stroke:#F28314;stroke-width:0.6673;stroke-miterlimit:10;}
	.st54{fill:#4168AF;}
	.st55{fill:#3799CF;}
	.st56{fill:#DD9C3E;}
	.st57{fill:#92BD94;}
	.st58{fill:#0068FF;stroke:#0068FF;stroke-width:0.6673;stroke-miterlimit:10;}
	.st59{fill:#B01DED;stroke:#B01DED;stroke-width:0.6673;stroke-miterlimit:10;}
	.st60{fill:#FFFFFF;stroke:#FFFFFF;stroke-width:0.6673;stroke-miterlimit:10;}
	.st61{fill:#FFCE00;stroke:#FFCE00;stroke-width:0.6673;stroke-miterlimit:10;}
	.st62{fill:#4F2DE0;stroke:#4F2DE0;stroke-width:0.6673;stroke-miterlimit:10;}
	.st63{fill:none;stroke:#FFFFFF;stroke-width:5;stroke-miterlimit:10;}
	.st64{fill:none;stroke:#FFFFFF;stroke-width:5;stroke-miterlimit:10;stroke-dasharray:8.8515,8.8515;}
	.st65{fill:none;stroke:#FFFFFF;stroke-width:5;stroke-miterlimit:10;stroke-dasharray:8.8831,8.8831;}
	.st66{fill:#8218E8;}
	.st67{fill:#54D37B;}
	.st68{fill:#B01DED;}
	.st69{fill:#EF8F26;}
	.st70{fill:#21874F;}
	.st71{fill:none;stroke:#FFFFFF;stroke-width:43.75;}
	.st72{fill:none;stroke:#000000;stroke-width:40;}
</style>
<rect class="st0" width="3562" height="738"/>
<g>
	<path class="st17" d="M1525.57,527.77h-277.05c-20.08,0-36.74-6.66-49.99-20c-13.25-13.33-19.87-29.95-19.87-49.86v-70.46
		c0-19.5,6.32-36.02,18.97-49.56c12.65-13.53,29.61-20.3,50.89-20.3h207.19v-70.46h-277.05v-69.86h277.05
		c20.47,0,37.23,6.67,50.29,20c13.04,13.34,19.57,29.96,19.57,49.86V527.77z M1455.71,457.91v-70.46h-207.19v70.46H1455.71z"/>
	<path class="st17" d="M1919.64,527.77h-69.86V247.14H1660.5v280.63h-69.86V177.28h259.13c37.74,0,60.42,15.93,68.05,47.77
		c1.2,6.77,1.81,14.13,1.81,22.09V527.77z"/>
	<path class="st17" d="M2314.91,75.78v451.99h-271.08c-17.27,0-31.93-4.57-43.97-13.73c-12.05-9.15-19.87-21.69-23.48-37.62
		c-1.6-5.97-2.41-12.14-2.41-18.51V245.35c0-17.91,6.72-33.74,20.17-47.47c13.45-13.73,30.01-20.6,49.69-20.6h201.22V75.78H2314.91z
		 M2245.05,457.91V247.14h-201.22v210.77H2245.05z"/>
	<path class="st17" d="M2717.93,457.91c0,46.57-23.29,69.86-69.86,69.86h-207.19c-37.34,0-59.82-15.52-67.45-46.57
		c-1.6-7.17-2.41-14.93-2.41-23.29V247.14c0-18.31,6.62-34.53,19.87-48.66c13.25-14.12,29.91-21.2,49.99-21.2h207.19
		c19.67,0,36.23,6.87,49.68,20.6c13.45,13.73,20.18,30.15,20.18,49.26V457.91z M2648.07,457.91V247.14h-207.19v210.77H2648.07z"/>
	<path class="st17" d="M3086.33,317.6h-69.86v-70.46h-177.93v280.63h-69.86V177.28h247.79c37.41,0,59.9,15.93,67.47,47.77
		c1.59,6.77,2.39,14.13,2.39,22.09V317.6z"/>
	<path class="st17" d="M3486.98,527.77h-277.05c-20.08,0-36.74-6.66-49.99-20c-13.25-13.33-19.87-29.95-19.87-49.86v-70.46
		c0-19.5,6.32-36.02,18.97-49.56c12.65-13.53,29.61-20.3,50.89-20.3h207.19v-70.46h-277.05v-69.86h277.05
		c20.47,0,37.23,6.67,50.29,20c13.04,13.34,19.57,29.96,19.57,49.86V527.77z M3417.12,457.91v-70.46h-207.19v70.46H3417.12z"/>
	<path class="st17" d="M768.91,629.15V177.15h271.08c17.27,0,31.93,4.57,43.97,13.73c12.05,9.15,19.87,21.69,23.48,37.62
		c1.6,5.97,2.41,12.14,2.41,18.51v212.56c0,17.91-6.72,33.74-20.17,47.47c-13.45,13.73-30.01,20.6-49.69,20.6H838.77v101.5H768.91z
		 M838.77,247.01v210.77h201.22V247.01H838.77z"/>
</g>
<g>
	<g>
		<polyline class="st63" points="430.16,419.09 430.16,423.75 434.82,423.75 		"/>
		<line class="st64" x1="443.67" y1="423.75" x2="563.17" y2="423.75"/>
		<polyline class="st63" points="567.6,423.75 572.26,423.75 572.26,419.09 		"/>
		<line class="st64" x1="572.26" y1="410.23" x2="572.26" y2="290.74"/>
		<polyline class="st63" points="572.26,286.31 572.26,281.65 567.6,281.65 		"/>
		<line class="st64" x1="558.74" y1="281.65" x2="439.25" y2="281.65"/>
		<polyline class="st63" points="434.82,281.65 430.16,281.65 430.16,286.31 		"/>
		<line class="st64" x1="430.16" y1="295.16" x2="430.16" y2="414.66"/>
	</g>
</g>
<g>
	<g>
		<polyline class="st63" points="145.47,419.32 145.47,423.99 150.14,423.99 		"/>
		<line class="st65" x1="159.02" y1="423.99" x2="278.94" y2="423.99"/>
		<polyline class="st63" points="283.38,423.99 288.05,423.99 288.05,419.32 		"/>
		<line class="st65" x1="288.05" y1="410.44" x2="288.05" y2="290.52"/>
		<polyline class="st63" points="288.05,286.08 288.05,281.41 283.38,281.41 		"/>
		<line class="st65" x1="274.5" y1="281.41" x2="154.58" y2="281.41"/>
		<polyline class="st63" points="150.14,281.41 145.47,281.41 145.47,286.08 		"/>
		<line class="st65" x1="145.47" y1="294.96" x2="145.47" y2="414.88"/>
	</g>
</g>
<g>
	<g>
		<polyline class="st63" points="288.05,419.09 288.05,423.75 292.72,423.75 		"/>
		<line class="st64" x1="301.57" y1="423.75" x2="421.06" y2="423.75"/>
		<polyline class="st63" points="425.49,423.75 430.16,423.75 430.16,419.09 		"/>
		<line class="st64" x1="430.16" y1="410.23" x2="430.16" y2="290.74"/>
		<polyline class="st63" points="430.16,286.31 430.16,281.65 425.49,281.65 		"/>
		<line class="st64" x1="416.64" y1="281.65" x2="297.14" y2="281.65"/>
		<polyline class="st63" points="292.72,281.65 288.05,281.65 288.05,286.31 		"/>
		<line class="st64" x1="288.05" y1="295.16" x2="288.05" y2="414.66"/>
	</g>
</g>
<g>
	<g>
		<polyline class="st63" points="429.92,276.74 429.92,281.41 434.59,281.41 		"/>
		<line class="st64" x1="443.44" y1="281.41" x2="562.93" y2="281.41"/>
		<polyline class="st63" points="567.36,281.41 572.03,281.41 572.03,276.74 		"/>
		<line class="st64" x1="572.03" y1="267.89" x2="572.03" y2="148.4"/>
		<polyline class="st63" points="572.03,143.97 572.03,139.3 567.36,139.3 		"/>
		<line class="st64" x1="558.51" y1="139.3" x2="439.01" y2="139.3"/>
		<polyline class="st63" points="434.59,139.3 429.92,139.3 429.92,143.97 		"/>
		<line class="st64" x1="429.92" y1="152.82" x2="429.92" y2="272.32"/>
	</g>
</g>
<g>
	<g>
		<polyline class="st63" points="145.71,276.74 145.71,281.41 150.37,281.41 		"/>
		<line class="st64" x1="159.22" y1="281.41" x2="278.72" y2="281.41"/>
		<polyline class="st63" points="283.15,281.41 287.81,281.41 287.81,276.74 		"/>
		<line class="st64" x1="287.81" y1="267.89" x2="287.81" y2="148.4"/>
		<polyline class="st63" points="287.81,143.97 287.81,139.3 283.15,139.3 		"/>
		<line class="st64" x1="274.29" y1="139.3" x2="154.8" y2="139.3"/>
		<polyline class="st63" points="150.37,139.3 145.71,139.3 145.71,143.97 		"/>
		<line class="st64" x1="145.71" y1="152.82" x2="145.71" y2="272.32"/>
	</g>
</g>
<g>
	<g>
		<polyline class="st63" points="287.81,276.74 287.81,281.41 292.48,281.41 		"/>
		<line class="st64" x1="301.33" y1="281.41" x2="420.83" y2="281.41"/>
		<polyline class="st63" points="425.25,281.41 429.92,281.41 429.92,276.74 		"/>
		<line class="st64" x1="429.92" y1="267.89" x2="429.92" y2="148.4"/>
		<polyline class="st63" points="429.92,143.97 429.92,139.3 425.25,139.3 		"/>
		<line class="st64" x1="416.4" y1="139.3" x2="296.91" y2="139.3"/>
		<polyline class="st63" points="292.48,139.3 287.81,139.3 287.81,143.97 		"/>
		<line class="st64" x1="287.81" y1="152.82" x2="287.81" y2="272.32"/>
	</g>
</g>
<g>
	<g>
		<polyline class="st63" points="429.92,561.43 429.92,566.1 434.59,566.1 		"/>
		<line class="st64" x1="443.44" y1="566.1" x2="562.93" y2="566.1"/>
		<polyline class="st63" points="567.36,566.1 572.03,566.1 572.03,561.43 		"/>
		<line class="st64" x1="572.03" y1="552.58" x2="572.03" y2="433.08"/>
		<polyline class="st63" points="572.03,428.66 572.03,423.99 567.36,423.99 		"/>
		<line class="st64" x1="558.51" y1="423.99" x2="439.01" y2="423.99"/>
		<polyline class="st63" points="434.59,423.99 429.92,423.99 429.92,428.66 		"/>
		<line class="st64" x1="429.92" y1="437.51" x2="429.92" y2="557"/>
	</g>
</g>
<g>
	<g>
		<polyline class="st63" points="145.71,561.43 145.71,566.1 150.37,566.1 		"/>
		<line class="st64" x1="159.22" y1="566.1" x2="278.72" y2="566.1"/>
		<polyline class="st63" points="283.15,566.1 287.81,566.1 287.81,561.43 		"/>
		<line class="st64" x1="287.81" y1="552.58" x2="287.81" y2="433.08"/>
		<polyline class="st63" points="287.81,428.66 287.81,423.99 283.15,423.99 		"/>
		<line class="st64" x1="274.29" y1="423.99" x2="154.8" y2="423.99"/>
		<polyline class="st63" points="150.37,423.99 145.71,423.99 145.71,428.66 		"/>
		<line class="st64" x1="145.71" y1="437.51" x2="145.71" y2="557"/>
	</g>
</g>
<g>
	<g>
		<polyline class="st63" points="287.81,561.43 287.81,566.1 292.48,566.1 		"/>
		<line class="st64" x1="301.33" y1="566.1" x2="420.83" y2="566.1"/>
		<polyline class="st63" points="425.25,566.1 429.92,566.1 429.92,561.43 		"/>
		<line class="st64" x1="429.92" y1="552.58" x2="429.92" y2="433.08"/>
		<polyline class="st63" points="429.92,428.66 429.92,423.99 425.25,423.99 		"/>
		<line class="st64" x1="416.4" y1="423.99" x2="296.91" y2="423.99"/>
		<polyline class="st63" points="292.48,423.99 287.81,423.99 287.81,428.66 		"/>
		<line class="st64" x1="287.81" y1="437.51" x2="287.81" y2="557"/>
	</g>
</g>
<path class="st17" d="M75.29,67.28V635.7h568.43V67.28H75.29z M572.9,564.89H146.1V138.09H572.9V564.89z"/>
</svg>
