<?xml version="1.0" encoding="utf-8"?>
<!-- Generator: Adobe Illustrator 25.2.1, SVG Export Plug-In . SVG Version: 6.00 Build 0)  -->
<svg version="1.1" id="Layer_1" xmlns="http://www.w3.org/2000/svg" xmlns:xlink="http://www.w3.org/1999/xlink" x="0px" y="0px"
	 viewBox="0 0 3562 738" style="enable-background:new 0 0 3562 738;" xml:space="preserve">
<style type="text/css">
	.st0{fill:#1C1C1B;}
	.st1{fill:#1364F0;}
	.st2{fill:#DCDC00;}
	.st3{fill:#F50000;}
	.st4{fill:#6D1943;}
	.st5{fill:#00A946;}
	.st6{fill:#EF3B68;}
	.st7{fill:#3499CD;}
	.st8{fill:#6FC498;}
	.st9{fill:#996699;}
	.st10{fill:#FFCE0C;}
	.st11{fill:#E62C5F;}
	.st12{fill:#EC1C24;}
	.st13{fill:#E94753;}
	.st14{fill:#EE6771;}
	.st15{fill:#ED8D97;}
	.st16{fill:#E4B4BC;}
	.st17{fill:#FFFFFF;}
	.st18{clip-path:url(#SVGID_2_);fill:#6D1843;}
	.st19{clip-path:url(#SVGID_2_);fill:none;stroke:#6D1843;stroke-width:1.909;stroke-miterlimit:10;}
	.st20{clip-path:url(#SVGID_2_);fill:#8B2863;}
	.st21{clip-path:url(#SVGID_2_);fill:none;stroke:#8B2863;stroke-width:1.909;stroke-miterlimit:10;}
	.st22{clip-path:url(#SVGID_2_);fill:#BE5E91;}
	.st23{clip-path:url(#SVGID_2_);fill:none;stroke:#BE5E91;stroke-width:1.909;stroke-miterlimit:10;}
	.st24{clip-path:url(#SVGID_2_);fill:#D180B0;}
	.st25{clip-path:url(#SVGID_2_);fill:none;stroke:#D180B0;stroke-width:1.909;stroke-miterlimit:10;}
	.st26{clip-path:url(#SVGID_2_);fill:#FFFFFF;}
	.st27{clip-path:url(#SVGID_2_);fill:none;stroke:#FFFFFF;stroke-width:1.909;stroke-miterlimit:10;}
	.st28{clip-path:url(#SVGID_4_);fill:#478CCA;}
	.st29{clip-path:url(#SVGID_4_);fill:#50ABE0;}
	.st30{clip-path:url(#SVGID_4_);fill:#6BC9F1;}
	.st31{clip-path:url(#SVGID_4_);fill:#FFFFFF;}
	.st32{fill:none;stroke:#DEDEDE;stroke-width:30;}
	.st33{fill:#CCCCCC;}
	.st34{fill:#78BF92;}
	.st35{fill:#3997CD;}
	.st36{fill:#A06396;}
	.st37{fill:#F3962B;}
	.st38{fill:#FFCE00;}
	.st39{fill:#A2FFC2;}
	.st40{fill:#46C3FF;}
	.st41{fill:#FFAFFF;}
	.st42{fill:#FF3E82;}
	.st43{fill:#FFAA37;}
	.st44{fill:#FFD400;}
	.st45{fill:none;}
	.st46{fill:#2F89F4;stroke:#2F89F4;stroke-width:0.6673;stroke-miterlimit:10;}
	.st47{fill:#8218E8;stroke:#8218E8;stroke-width:0.6673;stroke-miterlimit:10;}
	.st48{fill:#EF8F26;stroke:#EF8F26;stroke-width:0.6673;stroke-miterlimit:10;}
	.st49{fill:#EF3030;stroke:#EF3030;stroke-width:0.6673;stroke-miterlimit:10;}
	.st50{fill:#19D86B;stroke:#19D86B;stroke-width:0.6673;stroke-miterlimit:10;}
	.st51{fill:#85DD28;stroke:#85DD28;stroke-width:0.6673;stroke-miterlimit:10;}
	.st52{fill:#F9E419;stroke:#F9E419;stroke-width:0.6673;stroke-miterlimit:10;}
	.st53{fill:#F28314;stroke:#F28314;stroke-width:0.6673;stroke-miterlimit:10;}
	.st54{fill:#4168AF;}
	.st55{fill:#3799CF;}
	.st56{fill:#DD9C3E;}
	.st57{fill:#92BD94;}
	.st58{fill:#0068FF;stroke:#0068FF;stroke-width:0.6673;stroke-miterlimit:10;}
	.st59{fill:#B01DED;stroke:#B01DED;stroke-width:0.6673;stroke-miterlimit:10;}
	.st60{fill:#FFFFFF;stroke:#FFFFFF;stroke-width:0.6673;stroke-miterlimit:10;}
	.st61{fill:#FFCE00;stroke:#FFCE00;stroke-width:0.6673;stroke-miterlimit:10;}
	.st62{fill:#4F2DE0;stroke:#4F2DE0;stroke-width:0.6673;stroke-miterlimit:10;}
	.st63{fill:none;stroke:#FFFFFF;stroke-width:5;stroke-miterlimit:10;}
	.st64{fill:none;stroke:#FFFFFF;stroke-width:5;stroke-miterlimit:10;stroke-dasharray:8.8515,8.8515;}
	.st65{fill:none;stroke:#FFFFFF;stroke-width:5;stroke-miterlimit:10;stroke-dasharray:8.8831,8.8831;}
	.st66{fill:#8218E8;}
	.st67{fill:#54D37B;}
	.st68{fill:#B01DED;}
	.st69{fill:#EF8F26;}
	.st70{fill:#21874F;}
	.st71{fill:none;stroke:#FFFFFF;stroke-width:43.75;}
	.st72{fill:none;stroke:#000000;stroke-width:40;}
</style>
<g>
	<path d="M1525.57,527.77h-277.05c-20.08,0-36.74-6.66-49.99-20c-13.25-13.33-19.87-29.95-19.87-49.86v-70.46
		c0-19.5,6.32-36.02,18.97-49.56c12.65-13.53,29.61-20.3,50.89-20.3h207.19v-70.46h-277.05v-69.86h277.05
		c20.47,0,37.23,6.67,50.29,20c13.04,13.34,19.57,29.96,19.57,49.86V527.77z M1455.71,457.91v-70.46h-207.19v70.46H1455.71z"/>
	<path d="M1919.64,527.77h-69.86V247.14H1660.5v280.63h-69.86V177.28h259.13c37.74,0,60.42,15.93,68.05,47.77
		c1.2,6.77,1.81,14.13,1.81,22.09V527.77z"/>
	<path d="M2314.91,75.78v451.99h-271.08c-17.27,0-31.93-4.57-43.97-13.73c-12.05-9.15-19.87-21.69-23.48-37.62
		c-1.6-5.97-2.41-12.14-2.41-18.51V245.35c0-17.91,6.72-33.74,20.17-47.47c13.45-13.73,30.01-20.6,49.69-20.6h201.22V75.78H2314.91z
		 M2245.05,457.91V247.14h-201.22v210.77H2245.05z"/>
	<path d="M2717.93,457.91c0,46.57-23.29,69.86-69.86,69.86h-207.19c-37.34,0-59.82-15.52-67.45-46.57
		c-1.6-7.17-2.41-14.93-2.41-23.29V247.14c0-18.31,6.62-34.53,19.87-48.66c13.25-14.12,29.91-21.2,49.99-21.2h207.19
		c19.67,0,36.23,6.87,49.68,20.6c13.45,13.73,20.18,30.15,20.18,49.26V457.91z M2648.07,457.91V247.14h-207.19v210.77H2648.07z"/>
	<path d="M3086.33,317.6h-69.86v-70.46h-177.93v280.63h-69.86V177.28h247.79c37.41,0,59.9,15.93,67.47,47.77
		c1.59,6.77,2.39,14.13,2.39,22.09V317.6z"/>
	<path d="M3486.98,527.77h-277.05c-20.08,0-36.74-6.66-49.99-20c-13.25-13.33-19.87-29.95-19.87-49.86v-70.46
		c0-19.5,6.32-36.02,18.97-49.56c12.65-13.53,29.61-20.3,50.89-20.3h207.19v-70.46h-277.05v-69.86h277.05
		c20.47,0,37.23,6.67,50.29,20c13.04,13.34,19.57,29.96,19.57,49.86V527.77z M3417.12,457.91v-70.46h-207.19v70.46H3417.12z"/>
	<path d="M768.91,629.15V177.15h271.08c17.27,0,31.93,4.57,43.97,13.73c12.05,9.15,19.87,21.69,23.48,37.62
		c1.6,5.97,2.41,12.14,2.41,18.51v212.56c0,17.91-6.72,33.74-20.17,47.47c-13.45,13.73-30.01,20.6-49.69,20.6H838.77v101.5H768.91z
		 M838.77,247.01v210.77h201.22V247.01H838.77z"/>
</g>
<rect x="74.65" y="68.25" width="568.43" height="568.43"/>
<rect x="430.16" y="281.65" transform="matrix(-1 -4.490331e-11 4.490331e-11 -1 1002.4187 705.3987)" class="st66" width="142.11" height="142.11"/>
<rect x="145.47" y="281.41" transform="matrix(-1 -4.491975e-11 4.491975e-11 -1 433.5191 705.3987)" class="st67" width="142.58" height="142.58"/>
<rect x="288.05" y="281.65" transform="matrix(-1 -4.490331e-11 4.490331e-11 -1 718.2057 705.3987)" class="st68" width="142.11" height="142.11"/>
<rect x="429.92" y="139.3" transform="matrix(-1 -4.489044e-11 4.489044e-11 -1 1001.9451 420.7121)" class="st6" width="142.11" height="142.11"/>
<rect x="145.71" y="139.3" transform="matrix(-1 -4.489044e-11 4.489044e-11 -1 433.5191 420.7121)" class="st44" width="142.11" height="142.11"/>
<rect x="287.81" y="139.3" transform="matrix(-1 -4.489044e-11 4.489044e-11 -1 717.7321 420.7121)" class="st69" width="142.11" height="142.11"/>
<rect x="429.92" y="423.99" transform="matrix(-1 -4.487756e-11 4.487756e-11 -1 1001.9451 990.0854)" class="st35" width="142.11" height="142.11"/>
<rect x="145.71" y="423.99" transform="matrix(-1 -4.490331e-11 4.490331e-11 -1 433.5191 990.0854)" class="st70" width="142.11" height="142.11"/>
<rect x="287.81" y="423.99" transform="matrix(-1 -4.487756e-11 4.487756e-11 -1 717.7321 990.0854)" class="st40" width="142.11" height="142.11"/>
</svg>
